<svg xmlns="http://www.w3.org/2000/svg" height="800" width="1200" id="svg14901" version="1.1" viewBox="-5.516562 -1.7198 47.810204 10.3188"><g transform="translate(-425.88933 -240.04951)" id="layer1"><g transform="translate(.1323 -.13229)" id="g16689" fill="#2f2951" fill-rule="evenodd" stroke="none"><path d="M446.01986 243.64063c0 .0504-.004.10237-.0191.14795-.0601.18949-.26421.34992-.5196.34992-.21454 0-.38321-.11615-.38321-.36193 0-.37593.43002-.47997.92196-.47732zm.81424-.65513c0-.62-.2762-1.16545-1.20837-1.16545-.47864 0-.85886.12893-1.06586.24382l.1511.4986c.18936-.11489.49194-.20999.77832-.20999.47268-.001.55044.25705.55044.42255v.0393c-1.03209-.002-1.68415.34099-1.68415 1.03938 0 .42647.33191.82606.91043.82606.35388 0 .65186-.13598.82957-.35379h.0176s.11744.47313.76644.29204c-.0339-.19683-.0455-.40665-.0455-.65929zm3.79377-.45164v-.69684h-.67105v-.86147h-.76048v2.68715c0 .37057.0734.63009.22901.78846.13651.1387.35975.22856.62698.22856.22758 0 .45207-.0414.55794-.0794l-.0105-.57786c-.0777.0186-.16878.0332-.29206.0332-.26282 0-.3509-.16112-.3509-.49375v-1.02805zm-2.70157-.13609h-.0205v-.51607h-.69894v2.73627h.79569v-1.40099c0-.0756.004-.14162.0177-.20207.0587-.29352.29211-.48105.62846-.48105.0923 0 .15702.01.22901.0195v-.71637c-.0602-.0116-.10127-.017-.17477-.017-.29663 0-.6343.18374-.7767.57772zm-4.78775-.57772c-.22449 0-.40213.0539-.56231.14847-.13509.0794-.2554.19241-.36123.34073h-.0117c-.12189-.29461-.40947-.4892-.78536-.4892-.48161 0-.69883.23453-.82958.43349h-.0117v-.37184h-.73561v2.73627h.77522v-1.60487c0-.0751.009-.15454.0367-.22388.0631-.16138.22019-.35061.46986-.35061.31264 0 .45952.25377.45952.61996v1.5594h.77368v-1.62408c0-.072.0103-.15812.0323-.22182.0631-.18388.23202-.33346.46548-.33346.31562 0 .46823.24932.46823.68023v1.49913h.7738v-1.61156c0-.84989-.44935-1.18636-.95731-1.18636zm-5.74865 1.82058c0 .0504-.004.10237-.019.14795-.0602.18949-.26425.34992-.52119.34992-.21288 0-.38177-.11615-.38177-.36193 0-.37593.43028-.47997.922-.47732zm.81423-.65513c0-.62-.27601-1.16545-1.20841-1.16545-.47859 0-.85882.12893-1.06612.24382l.15159.4986c.18932-.11489.49172-.20999.77809-.20999.47268-.001.55044.25705.55044.42255v.0393c-1.03205-.002-1.68327.34099-1.68327 1.03938 0 .42647.33179.82606.90808.82606.35539 0 .65202-.13598.82958-.35379h.0177s.11877.47313.76773.29204c-.0337-.19683-.0454-.40665-.0454-.65929zm-3.06299-2.00995l-.34238 1.57466c-.0921.45837-.1753.81686-.23994 1.23613h-.0114c-.0583-.41529-.13279-.75917-.22641-1.20571l-.3561-1.60508h-.84372l-.38109 1.56453c-.10772.47541-.20911.85937-.27329 1.26446h-.0114c-.0658-.38132-.15359-.86404-.2485-1.32404 0 0-.22614-1.11907-.30567-1.50495h-.85253s.67376 2.65007.7814 3.08011c.12536.50215.3514.68707 1.00352.56231l.42082-1.64325c.10667-.40802.17828-.69879.24673-1.11411h.0121c.0481.41937.11681.70736.20425 1.11574 0 0 .17153.74593.25905 1.1377.0882.39159.3327.63834.97163.50392l1.00235-3.64242zm3.48283 3.64252h.77074v-3.64234h-.77074z" id="Fill-1" stroke-width=".26458"/><path id="Fill-3" transform="translate(425.75704 240.1818) scale(.26458)" stroke-width="1" d="M102.54995 3H100v14h8v-2.21148h-5.45005z"/><path d="M456.16683 243.62219c0 .0513-.004.10419-.0181.15058-.0567.19285-.24939.35613-.49021.35613-.20245 0-.3617-.11822-.3617-.36836 0-.3826.40583-.48848.86997-.4858zm.76823-.66676c0-.631-.2606-1.18613-1.14009-1.18613-.4516 0-.81034.13122-1.00564.24818l.14253.50741c.17873-.11693.46414-.21372.73423-.21372.44608-.001.51948.26162.51948.43006v.04c-.97377-.002-1.58895.34703-1.58895 1.05782 0 .43404.31301.84072.85895.84072.33378 0 .61503-.1384.78267-.36007h.0166s.11081.48153.72303.29722c-.0319-.20032-.0428-.4139-.0428-.67099z" id="Fill-5" stroke-width=".26458"/><path d="M458.94164 244.13839c-.31405 0-.569-.20647-.64606-.48004-.0118-.0502-.0177-.10597-.0177-.16172v-.44095c0-.0669.0119-.12844.0237-.17859.0831-.30135.34972-.50234.64598-.50234.48604 0 .72902.39066.72902.87071 0 .54693-.27846.89293-.73489.89293m.27263-2.2994c-.43265 0-.74674.17306-.92455.43539h-.0119v-1.29883h-.72902v2.87822c0 .0828.001.14629.002.20113-.003.20644-.0151.38659-.044.55536.57702.16219.74671-.19662.77696-.27717.20728.24535.49974.34663.82362.34663.65208 0 1.30987-.48558 1.30987-1.46222.006-.82599-.49777-1.37851-1.20313-1.37851" id="Fill-7" stroke-width=".26458"/><path d="M461.73877 242.95525c-.37936-.12598-.51999-.21199-.51999-.38964 0-.17187.14685-.29214.41599-.29214.26304 0 .50174.0916.63013.16048l.14681-.49846c-.17131-.0859-.45879-.16619-.78913-.16619-.69131 0-1.1257.38389-1.1257.8766-.006.32656.23861.62441.81989.81352.36697.12031.48935.21763.48935.40678 0 .18336-.14677.30935-.47727.30935-.26906 0-.59336-.10314-.76475-.2005l-.14664.50988c.22016.11464.54438.19479.90533.19479.78917 0 1.21133-.36661 1.21133-.87078-.006-.41253-.25687-.67036-.79535-.85369" id="Fill-9" stroke-width=".26458"/><path d="M426.55079 243.88597l.89262-3.43959h.13271l-.85873 3.30661h1.88591c.0354 0 .0642.0298.0642.0665s-.0287.0665-.0642.0665zm3.1053-.7212h-2.15773l.77868-2.98297h-1.58518l-.90403 3.46692c-.13511.52148.18725.94816.7163.94816l.98344.00003-.62906 2.42805c-.008.0303.0309.0495.0494.0246l2.80359-3.77095c.0347-.0467.002-.11379-.0554-.11379z" id="Fill-12" stroke-width=".26458"/></g></g><style type="text/css" id="style14903"/><style type="text/css" id="style14927"/></svg>